nColumns=19
nRows=51
DataType=double
version=3
OpenSimVersion=4.1
endheader
time	ground_force_1_vx	ground_force_1_vy	ground_force_1_vz	ground_force_1_px	ground_force_1_py	ground_force_1_pz	ground_force_1_mx	ground_force_1_my	ground_force_1_mz	ground_force_2_vx	ground_force_2_vy	ground_force_2_vz	ground_force_2_px	ground_force_2_py	ground_force_2_pz	ground_force_2_mx	ground_force_2_my	ground_force_2_mz
0.11	-33.1842	150.611	-22.0455	1.10921	0	-0.313249	-0	7.62377	-0	0	0	0	0.000431055	0	7.58519e-06	0	0	0
0.12	-67.9806	394.282	-26.2221	1.08914	0	-0.320082	-0	7.73612	-0	0	0	0	0.000431055	0	7.58519e-06	0	0	0
0.13	-97.3242	756.368	-13.3742	1.06596	0	-0.326652	-0	5.59813	-0	0	0	0	0.000431055	0	7.58519e-06	0	0	0
0.14	-127.391	1121.4	19.7837	1.04243	0	-0.332207	-0	1.69011	-0	0	0	0	0.000431055	0	7.58519e-06	0	0	0
0.15	-171.337	1368.92	57.8572	1.01921	0	-0.336855	0	-2.64087	0	0	0	0	0.000431055	0	7.58519e-06	0	0	0
0.16	-196.436	1501.09	80.2059	0.993768	0	-0.340483	0	-5.78186	0	0	0	0	0.000431055	0	7.58519e-06	0	0	0
0.17	-194.376	1593.56	81.2993	0.965725	0	-0.341391	0	-6.63323	0	0	0	0	0.000431055	0	7.58519e-06	0	0	0
0.18	-173.095	1667.44	68.6001	0.936714	0	-0.340154	0	-5.07005	0	0	0	0	0.000431055	0	7.58519e-06	0	0	0
0.19	-137.629	1704.11	51.9386	0.90743	0	-0.338735	0	-1.87753	0	0	0	0	0.000431055	0	7.58519e-06	0	0	0
0.2	-96.2006	1697.6	38.908	0.877944	0	-0.337167	-0	1.69569	-0	0	0	0	0.000431055	0	7.58519e-06	0	0	0
0.21	-49.5666	1649.54	31.1743	0.847864	0	-0.335412	-0	4.47501	-0	0	0	0	0.000431055	0	7.58519e-06	0	0	0
0.22	6.15847	1560.73	27.3952	0.815594	0	-0.334248	-0	5.74434	-0	0	0	0	0.000431055	0	7.58519e-06	0	0	0
0.23	69.9736	1434.88	28.7694	0.780801	0	-0.333818	-0	5.39302	-0	0	0	0	0.000431055	0	7.58519e-06	0	0	0
0.24	133.302	1276.95	35.7403	0.74544	0	-0.333768	-0	3.85568	-0	0	0	0	0.000431055	0	7.58519e-06	0	0	0
0.25	181.299	1089.16	44.0622	0.711011	0	-0.33443	-0	1.89059	-0	0	0	0	0.000431055	0	7.58519e-06	0	0	0
0.26	204.845	878.204	49.2154	0.676812	0	-0.335898	-0	0.267188	-0	0	0	0	0.000431055	0	7.58519e-06	0	0	0
0.27	200.435	659.044	49.6466	0.643129	0	-0.337207	0	-0.5139	0	0	0	0	0.000431055	0	7.58519e-06	0	0	0
0.28	170.392	450.863	44.6877	0.611362	0	-0.337691	0	-0.362311	0	0	0	0	0.000431055	0	7.58519e-06	0	0	0
0.29	124.505	274.259	34.6736	0.582074	0	-0.337579	-0	0.428179	-0	0	0	0	0.000431055	0	7.58519e-06	0	0	0
0.3	76.2085	143.944	22.7234	0.556986	0	-0.335871	-0	1.346	-0	0	0	0	0.000431055	0	7.58519e-06	0	0	0
0.31	36.4059	62.9353	12.6991	0.557658	0	-0.3259	-0	1.90042	-0	0	0	0	0.000431055	0	7.58519e-06	0	0	0
0.32	0	0	0	0.000431055	0	7.58519e-06	0	0	0	0	0	0	0.000431055	0	7.58519e-06	0	0	0
0.33	0	0	0	0.000431055	0	7.58519e-06	0	0	0	0	0	0	0.000431055	0	7.58519e-06	0	0	0
0.34	0	0	0	0.000431055	0	7.58519e-06	0	0	0	0	0	0	0.000431055	0	7.58519e-06	0	0	0
0.35	0	0	0	0.000431055	0	7.58519e-06	0	0	0	0	0	0	0.000431055	0	7.58519e-06	0	0	0
0.36	0	0	0	0.000431055	0	7.58519e-06	0	0	0	0	0	0	0.000431055	0	7.58519e-06	0	0	0
0.37	0	0	0	0.000431055	0	7.58519e-06	0	0	0	0	0	0	0.000431055	0	7.58519e-06	0	0	0
0.38	0	0	0	0.000431055	0	7.58519e-06	0	0	0	0	0	0	0.000431055	0	7.58519e-06	0	0	0
0.39	0	0	0	0.000431055	0	7.58519e-06	0	0	0	0	0	0	0.000431055	0	7.58519e-06	0	0	0
0.4	0	0	0	0.000431055	0	7.58519e-06	0	0	0	0	0	0	0.000431055	0	7.58519e-06	0	0	0
0.41	0	0	0	0.000431055	0	7.58519e-06	0	0	0	0	0	0	0.000431055	0	7.58519e-06	0	0	0
0.42	0	0	0	0.000431055	0	7.58519e-06	0	0	0	0	0	0	0.000431055	0	7.58519e-06	0	0	0
0.43	0	0	0	0.000431055	0	7.58519e-06	0	0	0	0	0	0	0.000431055	0	7.58519e-06	0	0	0
0.44	0	0	0	0.000431055	0	7.58519e-06	0	0	0	-48.3811	142.797	8.43631	1.08132	0	-0.367329	0	-1.72346	0
0.45	0	0	0	0.000431055	0	7.58519e-06	0	0	0	-94.317	367.998	17.8255	1.07372	0	-0.358018	0	-2.18814	0
0.46	0	0	0	0.000431055	0	7.58519e-06	0	0	0	-114.354	693.673	23.8458	1.05516	0	-0.348746	0	-1.66801	0
0.47	0	0	0	0.000431055	0	7.58519e-06	0	0	0	-112.666	1005.53	15.3236	1.03017	0	-0.343382	0	-0.107405	0
0.48	0	0	0	0.000431055	0	7.58519e-06	0	0	0	-133.864	1202.51	-5.96056	1.00493	0	-0.341564	-0	1.96282	-0
0.49	0	0	0	0.000431055	0	7.58519e-06	0	0	0	-164.91	1312.41	-23.2515	0.979102	0	-0.34034	-0	3.6391	-0
0.5	0	0	0	0.000431055	0	7.58519e-06	0	0	0	-175.248	1412.7	-24.8729	0.949764	0	-0.338989	-0	4.16278	-0
0.51	0	0	0	0.000431055	0	7.58519e-06	0	0	0	-156.62	1516.85	-15.4479	0.917272	0	-0.338604	-0	3.35574	-0
0.52	0	0	0	0.000431055	0	7.58519e-06	0	0	0	-117.118	1595.22	-5.31145	0.88377	0	-0.338974	-0	1.67422	-0
0.53	0	0	0	0.000431055	0	7.58519e-06	0	0	0	-66.0522	1629.54	0.274246	0.849943	0	-0.339049	0	-0.078231	0
0.54	0	0	0	0.000431055	0	7.58519e-06	0	0	0	-7.77099	1617.41	0.116422	0.815462	0	-0.338621	0	-1.1408	0
0.55	0	0	0	0.000431055	0	7.58519e-06	0	0	0	55.8413	1563.4	-5.64932	0.780002	0	-0.337881	0	-1.09087	0
0.56	0	0	0	0.000431055	0	7.58519e-06	0	0	0	120.181	1470.83	-15.0835	0.744505	0	-0.336598	-0	0.042652	-0
0.57	0	0	0	0.000431055	0	7.58519e-06	0	0	0	178.384	1337.56	-25.4617	0.709537	0	-0.334647	-0	1.84849	-0
0.58	0	0	0	0.000431055	0	7.58519e-06	0	0	0	222.833	1162.19	-34.9286	0.674535	0	-0.332527	-0	3.72021	-0
0.59	0	0	0	0.000431055	0	7.58519e-06	0	0	0	244.782	952.016	-41.5392	0.64025	0	-0.330631	-0	5.07462	-0
0.6	0	0	0	0.000431055	0	7.58519e-06	0	0	0	239.097	724.542	-43.3195	0.608606	0	-0.328678	-0	5.53406	-0
0.61	0	0	0	0.000431055	0	7.58519e-06	0	0	0	206.911	501.949	-40.2564	0.578938	0	-0.327128	-0	5.02426	-0
